<?xml version="1.0" standalone="no"?>
<!DOCTYPE svg PUBLIC "-//W3C//DTD SVG 20010904//EN"
 "http://www.w3.org/TR/2001/REC-SVG-20010904/DTD/svg10.dtd">
<svg version="1.0" xmlns="http://www.w3.org/2000/svg"
 width="2368.000000pt" height="2368.000000pt" viewBox="0 0 2368.000000 2368.000000"
 preserveAspectRatio="xMidYMid meet">
<metadata>
Created by potrace 1.14, written by Peter Selinger 2001-2017
</metadata>
<g transform="translate(0.000000,2368.000000) scale(0.100000,-0.100000)"
fill="#000000" stroke="none">
<path d="M1880 15026 c-14 -7 -53 -18 -87 -24 -40 -7 -87 -25 -130 -50 -38
-22 -110 -57 -162 -78 -52 -22 -112 -55 -135 -76 -23 -20 -57 -45 -75 -55 -19
-10 -34 -23 -35 -28 -2 -19 44 -16 77 3 45 28 231 64 357 70 204 10 546 2 597
-13 27 -8 73 -15 102 -15 50 0 173 -13 261 -28 l35 -5 -40 -9 c-22 -4 -119 -7
-215 -7 -206 1 -1025 -19 -1057 -26 -13 -3 -23 -10 -23 -16 0 -5 60 -69 132
-141 138 -136 185 -167 276 -183 24 -4 82 -27 130 -51 48 -25 112 -52 142 -60
30 -8 64 -19 76 -23 57 -24 398 47 621 128 202 73 389 177 467 259 25 27 27
35 21 70 -19 112 -113 167 -405 237 -36 9 -101 32 -145 52 -44 19 -120 46
-170 59 -83 22 -109 23 -340 23 -189 0 -256 -3 -275 -13z"/>
<path d="M1132 14627 c-38 -12 -86 -75 -121 -157 -13 -30 -38 -75 -57 -100
-48 -67 -71 -134 -115 -335 -44 -198 -45 -225 -8 -380 10 -44 19 -91 19 -104
0 -13 35 -78 77 -145 94 -146 195 -252 268 -280 28 -10 78 -36 111 -58 52 -33
361 -178 380 -178 3 0 31 -18 63 -40 31 -22 86 -50 121 -62 36 -12 85 -34 110
-49 116 -71 184 -79 224 -26 19 26 19 29 3 79 -21 70 -39 270 -31 356 5 47 2
90 -10 139 -9 40 -16 89 -16 110 0 21 -9 71 -20 111 -11 39 -20 92 -20 116 0
34 -14 74 -62 172 -60 124 -64 129 -188 253 -70 69 -137 140 -151 156 -13 17
-47 46 -74 65 -28 19 -117 101 -199 183 -180 180 -218 202 -304 174z m186
-447 c14 -30 59 -106 100 -169 41 -63 85 -141 98 -174 27 -69 64 -137 141
-258 29 -48 74 -132 98 -187 24 -56 57 -121 73 -144 16 -24 46 -74 67 -113
l39 -69 -34 24 c-19 13 -69 58 -110 100 -155 156 -334 469 -520 905 -32 75
-71 206 -70 233 1 19 96 -100 118 -148z"/>
<path d="M21085 12270 c-177 -17 -309 -91 -413 -231 -50 -68 -62 -95 -97 -219
-41 -144 -38 -267 8 -423 40 -132 56 -158 165 -264 102 -100 163 -132 282
-150 310 -48 573 79 692 333 32 68 57 213 58 331 1 196 -88 385 -241 515 -62
52 -177 97 -268 104 -31 3 -69 6 -86 7 -16 2 -61 0 -100 -3z m115 -211 c112
-35 181 -121 224 -279 14 -53 17 -96 14 -226 -3 -160 -3 -160 -37 -227 -64
-127 -135 -164 -263 -137 -82 18 -161 81 -195 158 -40 91 -53 166 -52 312 0
255 50 361 191 405 55 17 43 18 118 -6z"/>
<path d="M5312 12248 c-6 -8 -12 -40 -13 -72 -3 -67 8 -80 71 -91 22 -4 43
-12 48 -18 11 -13 15 -606 5 -779 l-5 -108 -51 -15 c-28 -8 -54 -21 -59 -28
-12 -19 -9 -122 4 -135 9 -9 127 -12 469 -12 388 0 460 2 472 15 21 21 44 140
58 299 14 164 13 166 -83 166 l-58 0 -61 -122 c-33 -68 -66 -129 -74 -137 -15
-16 -272 -28 -292 -14 -14 10 -25 605 -14 773 l6 95 60 13 c106 24 105 23 105
96 0 38 -5 68 -11 72 -7 4 -136 9 -289 11 -222 3 -279 1 -288 -9z"/>
<path d="M6860 12234 c-14 -37 -12 -120 3 -132 7 -6 31 -14 54 -18 22 -3 45
-9 50 -13 10 -5 19 -563 15 -808 l-2 -82 -55 -17 c-60 -19 -64 -25 -66 -102
-2 -37 2 -57 12 -63 8 -5 130 -9 272 -9 l257 0 10 26 c14 36 12 120 -3 132 -7
6 -35 15 -62 19 l-50 8 -6 80 c-3 44 -5 224 -3 400 2 176 4 341 4 367 l0 47
58 18 57 18 7 54 c3 30 2 65 -3 78 l-9 23 -265 0 -265 0 -10 -26z"/>
<path d="M7974 12245 c-21 -15 -36 -157 -32 -308 l3 -112 63 -3 c39 -2 69 2
78 9 8 7 38 59 66 116 l52 103 68 0 c37 0 68 -3 68 -7 1 -72 2 -781 1 -815
l-1 -47 -57 -16 c-32 -9 -64 -22 -70 -27 -8 -6 -13 -35 -13 -74 0 -53 3 -64
19 -69 37 -11 551 -2 561 10 6 7 13 39 16 72 8 70 0 78 -79 89 -25 4 -49 9
-55 13 -8 4 -12 147 -14 438 l-3 431 38 5 c20 3 54 3 76 0 l38 -5 47 -114 48
-114 68 0 c48 0 71 4 80 15 18 22 9 349 -11 390 l-14 30 -513 1 c-373 1 -517
-2 -528 -11z"/>
<path d="M9577 12247 c-22 -18 -37 -126 -37 -268 0 -85 4 -130 13 -141 16 -20
119 -31 140 -15 9 7 36 59 60 117 l44 105 71 3 70 3 6 -153 c5 -119 3 -708 -3
-714 0 -1 -28 -9 -61 -18 -68 -19 -80 -34 -80 -98 0 -76 -13 -73 294 -73 178
0 279 4 285 10 6 6 14 39 17 73 7 61 6 62 -21 72 -16 6 -48 14 -72 17 -24 3
-46 10 -49 14 -4 7 -8 731 -5 842 1 27 1 27 74 27 l72 0 49 -105 c27 -58 54
-109 60 -114 17 -13 119 -22 136 -11 33 20 15 382 -20 425 -11 13 -87 15 -520
14 -379 0 -511 -3 -523 -12z"/>
<path d="M11215 12252 c-28 -7 -31 -12 -39 -64 -11 -71 -3 -83 70 -98 l54 -11
0 -449 0 -448 -37 -12 c-74 -24 -83 -34 -83 -100 0 -46 4 -61 18 -68 10 -6
214 -9 477 -8 l460 1 18 65 c23 85 47 249 47 327 0 74 -10 83 -94 83 l-56 0
-35 -69 c-50 -100 -113 -195 -135 -203 -10 -4 -75 -4 -143 -1 l-125 6 -7 283
c-8 313 0 574 19 579 95 26 138 40 142 47 3 5 8 32 11 61 8 81 13 80 -280 83
-139 1 -265 -1 -282 -4z"/>
<path d="M12743 12248 c-6 -7 -13 -39 -17 -70 -7 -68 3 -83 68 -92 25 -4 48
-11 51 -15 11 -18 17 -859 6 -879 -6 -10 -25 -22 -43 -26 -64 -13 -78 -30 -78
-95 0 -38 5 -63 14 -70 10 -9 141 -12 491 -11 263 0 481 3 485 5 20 12 60 228
60 319 0 109 2 106 -99 106 l-67 0 -54 -109 -53 -109 -163 -7 c-89 -4 -167 -4
-173 -1 -12 8 -14 94 -4 239 l6 97 178 0 c209 0 203 -3 212 116 9 112 16 108
-212 100 l-191 -7 3 156 2 155 157 0 c115 0 159 -3 165 -12 4 -7 24 -51 44
-98 l37 -85 72 -3 c40 -2 77 2 84 8 23 18 27 183 7 295 l-17 100 -481 3 c-377
2 -483 -1 -490 -10z"/>
<path d="M15255 12251 c-28 -6 -30 -10 -37 -61 -3 -30 -3 -61 2 -70 5 -8 33
-22 62 -30 l53 -16 5 -255 c3 -140 4 -340 2 -446 l-4 -191 -56 -19 -57 -18 -3
-67 c-2 -56 0 -68 15 -76 22 -12 913 -14 932 -3 30 19 76 285 69 406 l-3 60
-74 0 -73 0 -62 -116 c-33 -63 -66 -124 -72 -134 -10 -16 -25 -18 -154 -17
-79 1 -146 5 -149 8 -8 7 -5 840 3 852 3 5 34 15 68 22 97 20 98 21 98 96 0
60 -2 65 -26 74 -28 11 -490 12 -539 1z"/>
<path d="M16795 12246 c-18 -13 -38 -107 -28 -133 3 -7 24 -17 47 -23 22 -6
51 -15 64 -20 l22 -10 0 -378 c0 -209 -3 -407 -6 -441 l-7 -61 -41 -12 c-64
-18 -76 -33 -76 -94 0 -92 -49 -84 496 -84 l484 0 14 23 c26 39 47 146 53 266
7 141 6 143 -94 139 l-68 -3 -55 -105 -55 -105 -118 -7 c-65 -4 -141 -4 -170
0 l-52 7 0 160 0 160 182 5 c116 3 186 9 193 16 18 18 33 160 20 184 -11 20
-19 21 -195 18 -118 -1 -189 2 -195 8 -7 7 -10 63 -8 150 l3 139 157 3 158 3
47 -98 48 -98 68 -3 c38 -2 74 2 81 8 27 22 27 211 0 343 -12 59 6 57 -493 57
-369 0 -461 -3 -476 -14z"/>
<path d="M18412 12248 c-5 -7 -13 -40 -17 -74 -8 -71 -4 -75 78 -93 l58 -13
-6 -136 c-4 -75 -9 -144 -12 -152 -3 -8 -9 -100 -14 -205 -5 -104 -12 -235
-15 -291 l-7 -101 -53 -17 c-30 -9 -58 -25 -64 -36 -14 -26 -12 -116 3 -128
22 -18 437 -21 466 -3 8 5 18 35 22 68 10 72 0 84 -79 98 l-57 10 1 65 c2 147
26 536 34 543 4 5 20 -29 35 -75 15 -45 38 -103 50 -128 12 -25 30 -74 39
-110 10 -36 32 -103 50 -150 18 -47 48 -125 66 -175 18 -49 38 -93 44 -98 6
-4 55 -6 110 -5 73 1 103 6 116 17 10 9 37 72 60 140 22 69 56 165 75 215 79
208 142 367 149 373 3 3 6 -43 6 -103 1 -60 5 -129 10 -154 5 -25 13 -113 16
-196 l7 -151 -53 -13 c-73 -17 -90 -37 -90 -104 0 -83 -7 -81 288 -80 297 2
285 -2 280 99 l-3 60 -60 16 c-58 15 -60 17 -66 55 -4 21 -12 129 -18 239 -6
110 -16 252 -21 315 -5 63 -11 157 -12 209 l-2 95 52 14 c29 8 57 23 62 32 16
30 15 121 -1 131 -23 14 -465 11 -476 -3 -6 -7 -23 -51 -37 -97 -15 -47 -36
-102 -47 -123 -10 -21 -26 -68 -35 -105 -8 -38 -40 -133 -69 -213 -30 -80 -59
-163 -64 -185 -14 -53 -26 -71 -36 -55 -4 6 -33 89 -65 183 -153 452 -203 586
-223 599 -7 4 -114 8 -238 8 -169 0 -229 -3 -237 -12z"/>
<path d="M22353 12252 c-6 -4 -13 -36 -15 -72 l-3 -65 41 -20 c22 -11 51 -24
65 -30 l24 -10 2 -432 c1 -315 -2 -435 -10 -442 -7 -5 -31 -14 -54 -20 -24 -7
-47 -20 -53 -31 -15 -27 -12 -106 4 -122 19 -19 476 -24 488 -6 4 7 8 41 8 75
0 71 -5 77 -83 88 -26 4 -51 12 -55 19 -9 14 -9 547 0 543 10 -3 224 -283 266
-347 45 -69 236 -326 270 -362 24 -27 30 -28 117 -28 57 0 95 4 103 12 9 9 12
141 12 534 0 405 3 524 13 531 6 6 29 16 50 22 20 7 42 21 47 31 14 26 13 117
-2 126 -6 4 -112 9 -234 11 -253 4 -244 7 -244 -81 0 -66 6 -74 67 -87 30 -7
56 -17 58 -23 7 -24 12 -556 5 -556 -6 0 -101 121 -174 224 -16 23 -61 86
-100 141 -39 55 -98 133 -131 174 -33 41 -80 104 -105 139 l-45 65 -161 3
c-88 1 -165 -1 -171 -4z"/>
</g>
</svg>
